<svg xmlns="http://www.w3.org/2000/svg" width="100" height="101" fill="none" viewBox="0 0 100 101"><path fill="#151515" fill-rule="evenodd" d="M47.0587 37.4401C47.3396 37.7214 47.4974 38.1026 47.4974 38.5001C47.4974 38.8976 47.3396 39.2789 47.0587 39.5601L37.6187 49.0001H65.9987C66.3965 49.0001 66.778 49.1582 67.0593 49.4395C67.3406 49.7208 67.4987 50.1023 67.4987 50.5001C67.4987 50.898 67.3406 51.2795 67.0593 51.5608C66.778 51.8421 66.3965 52.0001 65.9987 52.0001H37.6187L47.0587 61.4401C47.2061 61.5775 47.3243 61.7431 47.4062 61.9271C47.4882 62.1111 47.5323 62.3097 47.5359 62.5111C47.5394 62.7125 47.5024 62.9126 47.4269 63.0993C47.3515 63.2861 47.2392 63.4558 47.0968 63.5982C46.9543 63.7407 46.7847 63.8529 46.5979 63.9284C46.4111 64.0038 46.211 64.0409 46.0096 64.0373C45.8082 64.0338 45.6096 63.9897 45.4256 63.9077C45.2416 63.8257 45.076 63.7075 44.9387 63.5601L32.9387 51.5601C32.6578 51.2789 32.5 50.8976 32.5 50.5001C32.5 50.1026 32.6578 49.7214 32.9387 49.4401L44.9387 37.4401C45.2199 37.1592 45.6012 37.0015 45.9987 37.0015C46.3962 37.0015 46.7774 37.1592 47.0587 37.4401Z" clip-rule="evenodd"/><circle cx="50" cy="50.5" r="49" stroke="#323232" stroke-width="2"/></svg>