<svg width="100" height="101" viewBox="0 0 100 101" fill="none" xmlns="http://www.w3.org/2000/svg">
<path fill-rule="evenodd" clip-rule="evenodd" d="M52.94 37.4399C53.2213 37.159 53.6025 37.0012 54 37.0012C54.3975 37.0012 54.7787 37.159 55.06 37.4399L67.06 49.4399C67.3409 49.7212 67.4987 50.1024 67.4987 50.4999C67.4987 50.8974 67.3409 51.2786 67.06 51.5599L55.06 63.5599C54.9227 63.7073 54.7571 63.8255 54.5731 63.9075C54.3891 63.9894 54.1905 64.0335 53.989 64.0371C53.7876 64.0406 53.5876 64.0036 53.4008 63.9281C53.214 63.8527 53.0444 63.7404 52.9019 63.598C52.7595 63.4555 52.6472 63.2859 52.5718 63.0991C52.4963 62.9123 52.4593 62.7123 52.4628 62.5109C52.4664 62.3095 52.5105 62.1108 52.5924 61.9268C52.6744 61.7428 52.7926 61.5772 52.94 61.4399L62.38 51.9999H34C33.6022 51.9999 33.2206 51.8419 32.9393 51.5606C32.658 51.2793 32.5 50.8977 32.5 50.4999C32.5 50.1021 32.658 49.7205 32.9393 49.4392C33.2206 49.1579 33.6022 48.9999 34 48.9999H62.38L52.94 39.5599C52.6591 39.2787 52.5013 38.8974 52.5013 38.4999C52.5013 38.1024 52.6591 37.7212 52.94 37.4399Z" fill="#151515"/>
<circle cx="50" cy="50.5" r="49" stroke="#323232" stroke-width="2"/>
</svg>
